<?xml version="1.0" encoding="UTF-8"?>
<svg xmlns="http://www.w3.org/2000/svg" version="1.1" viewBox="0 0 512 512">
  <defs>
    <style>
      .cls-1 {
        fill: #23b9c0;
      }

      .cls-2 {
        fill: #9943a6;
      }
    </style>
  </defs>
  <!-- Generator: Adobe Illustrator 28.7.1, SVG Export Plug-In . SVG Version: 1.2.0 Build 142)  -->
  <g>
    <g id="Layer_2">
      <g>
        <path class="cls-1" d="M101.9,64h0c1.9,0,3.8.5,5.6,1.5l308.2,177.8c3.5,2,5.6,5.6,5.6,9.7,0,4-2.1,7.7-5.6,9.7l-89.4,51.8c-.9.5-1.9.8-2.9.8s-2-.3-2.9-.8l-51.6-29.4c0,0-.2-.1-.2-.3,0-.2.1-.3.2-.3l30.4-17.6c4.9-2.9,7.9-8,7.9-13.7s-2.9-10.8-7.9-13.7l-130.4-75.3c-2.4-1.4-5.1-2.1-7.9-2.1-8.7,0-15.8,7.1-15.8,15.8v55.5c0,7.6,4.1,14.6,10.7,18.4l246.3,141.1h0s4.2,2.4,4.2,2.4c6.3,3.6,11,9.7,12.8,16.7,2,7.6.6,15.7-3.9,23.4-1.5,2.5-3.6,4.6-6.2,6.1-5.3,3.1-10.8,4.7-16.3,4.7s-10.9-1.7-15.5-4.8h-.2c0-.1-.2-.2-.2-.2L96.4,280.7c-3.5-2-5.6-5.7-5.6-9.7V75.2c0-3.1,1.2-5.9,3.4-8,2.1-2,4.9-3.2,7.8-3.2M101.9,59c-8.4,0-16.2,6.8-16.2,16.2v195.8c0,5.8,3.1,11.2,8.2,14.1l280.6,160.5c5.2,3.6,11.5,5.7,18.3,5.7s12.5-1.7,18.9-5.4c3.3-1.9,6-4.6,7.9-7.9,11.3-19.1,3.9-38.6-10.7-47h0s-250.5-143.5-250.5-143.5c-5.1-2.9-8.2-8.2-8.2-14.1v-55.5c0-6.3,5.2-10.8,10.8-10.8,1.8,0,3.6.5,5.4,1.5l130.4,75.3c7.2,4.1,7.2,14.5,0,18.7l-30.4,17.6c-3.6,2.1-3.6,7.3,0,9.3l51.6,29.4c1.7.9,3.5,1.4,5.3,1.4s3.7-.5,5.4-1.5l89.4-51.8c10.8-6.2,10.8-21.8,0-28L110,61.2c-2.6-1.5-5.4-2.2-8.1-2.2h0Z"/>
        <path class="cls-2" d="M95.7,313.1h0c.9,0,1.7.2,2.5.7l109,62.9c2.3,1.3,2.5,3.5,2.5,4.3s-.2,3-2.5,4.3l-109,62.9c-.8.5-1.6.7-2.5.7-2.4,0-5-1.9-5-5v-125.9c0-3.1,2.6-5,5-5M95.7,308.1c-5.2,0-10,4.2-10,10v125.9c0,5.8,4.8,10,10,10s3.4-.4,5-1.4l109-62.9c6.7-3.8,6.7-13.5,0-17.3l-109-62.9c-1.6-.9-3.3-1.4-5-1.4h0Z"/>
      </g>
    </g>
  </g>
</svg>