<?xml version="1.0" encoding="UTF-8"?>
<svg xmlns="http://www.w3.org/2000/svg" version="1.1" viewBox="0 0 400 96.8">
  <!-- Generator: Adobe Illustrator 28.7.1, SVG Export Plug-In . SVG Version: 1.2.0 Build 142)  -->
  <g>
    <g id="Logo-triangle-fill">
      <g>
        <path id="Triangle_dot" d="M304.9,16.8l8.1,4.7c1.1.6,1.1,2.1,0,2.8l-8.1,4.7c-1.1.6-2.4-.2-2.4-1.4v-9.3c0-1.2,1.3-2,2.4-1.4Z" fill="#9943a6"/>
        <path id="Big_R" d="M151.3,59.3s0,0,0,0c3.8-1.6,6.7-4,8.7-7.1,2.1-3.1,3.1-6.9,3.1-11.3s-1-8.1-3.1-11.2c-2.1-3.2-5-5.6-8.7-7.3-3.8-1.7-8.3-2.5-13.5-2.5h-24.1c-.6,0-1.1.5-1.1,1.1v56c0,.6.5,1.1,1.1,1.1h11.3c.6,0,1.1-.5,1.1-1.1v-14.1c0-.6.5-1.1,1.1-1.1h10.5s0,0,0,0c.4,0,.7.2.9.5l10.6,15.3c.2.3.5.5.9.5h11.8c.9,0,1.4-1,.9-1.7l-11.8-17ZM146.4,48.3c-2.1,1.8-5.2,2.7-9.3,2.7h-9.8c-.6,0-1.1-.5-1.1-1.1v-18c0-.6.5-1.1,1.1-1.1h9.8c4.1,0,7.2.9,9.3,2.6,2.1,1.7,3.2,4.2,3.2,7.4s-1.1,5.7-3.2,7.5Z" fill="#fefbe4"/>
        <path id="e1" d="M213.6,43.4c-2.1-3.4-4.8-6.1-8.4-8-3.5-1.9-7.5-2.8-11.8-2.8s-8.6,1-12.3,3c-3.6,2-6.5,4.7-8.5,8.2-2,3.5-3,7.5-3,11.9s1.1,8.4,3.2,11.8c2.1,3.5,5.1,6.2,8.9,8.2s8.3,3,13.4,3,7.6-.6,10.7-1.9c2.7-1.1,5.1-2.6,7-4.6s.4-1.1,0-1.5l-5.5-5.9c-.4-.4-1.1-.5-1.5,0-1.3,1.1-2.7,1.9-4.2,2.5-1.8.7-3.9,1.1-6.2,1.1s-5-.5-7-1.5c-1.9-1-3.5-2.4-4.6-4.2-.4-.6-.7-1.2-.9-1.9s.3-1.5,1-1.5h31.3c.6,0,1.1-.4,1.1-1s0-.5,0-.8c0-.6,0-1.2,0-1.7,0-4.8-1-9-3.1-12.4ZM183.8,51.7c-.7,0-1.3-.7-1.1-1.4s.5-1.7.9-2.4c.9-1.7,2.3-3.1,3.9-4.1,1.7-1,3.6-1.5,5.9-1.5s4.2.5,5.8,1.5c1.7,1,3,2.3,3.9,4,.4.8.7,1.6,1,2.5s-.4,1.4-1.1,1.4h-19.3Z" fill="#fefbe4"/>
        <path id="e2" d="M266.1,43.4c-2.1-3.4-4.8-6.1-8.4-8-3.5-1.9-7.5-2.8-11.8-2.8s-8.6,1-12.3,3c-3.6,2-6.5,4.7-8.5,8.2-2,3.5-3,7.5-3,11.9s1,8.4,3.2,11.8c2.1,3.5,5.1,6.2,8.9,8.2,3.8,2,8.3,3,13.4,3s7.6-.6,10.7-1.9c2.8-1.1,5.1-2.6,7-4.6s.4-1.1,0-1.5l-5.5-5.9c-.4-.4-1.1-.5-1.5,0-1.3,1.1-2.7,1.9-4.2,2.5-1.8.7-3.9,1.1-6.2,1.1s-5-.5-7-1.5c-1.9-1-3.5-2.4-4.6-4.2-.4-.6-.7-1.2-.9-1.9s.3-1.5,1-1.5h31.3c.6,0,1.1-.4,1.1-1s0-.5,0-.8c0-.6,0-1.2,0-1.7,0-4.8-1-9-3.1-12.4ZM236.3,51.7c-.7,0-1.3-.7-1.1-1.4s.5-1.7.9-2.4c.9-1.7,2.3-3.1,3.9-4.1,1.7-1,3.6-1.5,5.9-1.5s4.2.5,5.8,1.5c1.7,1,3,2.3,3.9,4,.4.8.7,1.6,1,2.5s-.4,1.4-1.1,1.4h-19.3Z" fill="#fefbe4"/>
        <path id="l" d="M277.4,76.9V17.4c0-.6.5-1.1,1.1-1.1h10.8c.6,0,1.1.5,1.1,1.1v59.5c0,.6-.5,1.1-1.1,1.1h-10.8c-.6,0-1.1-.5-1.1-1.1Z" fill="#fefbe4"/>
        <path id="i" d="M302.1,34.4v42.5c0,.6.5,1.1,1.1,1.1h10.8c.6,0,1.1-.5,1.1-1.1v-42.5c0-.6-.5-1.1-1.1-1.1h-10.8c-.6,0-1.1.5-1.1,1.1Z" fill="#fefbe4"/>
        <path id="z" d="M363.9,69.1v7.8c0,.6-.5,1.1-1.1,1.1h-37.6c-.6,0-1.1-.5-1.1-1.1v-6.4c0-.3,0-.5.3-.7l20.9-24.7c.6-.7,0-1.8-.8-1.8h-18.7c-.6,0-1.1-.5-1.1-1.1v-7.8c0-.6.5-1.1,1.1-1.1h36.4c.6,0,1.1.5,1.1,1.1v6.4c0,.3,0,.5-.3.7l-20.9,24.7c-.6.7,0,1.8.8,1.8h20c.6,0,1.1.5,1.1,1.1Z" fill="#fefbe4"/>
        <path id="small_r" d="M400,33.7v9.6c0,.7-.6,1.2-1.3,1.1s-.1,0-.2,0c-.5,0-.9,0-1.4,0-3.7,0-6.6,1-8.7,3.1-2.2,2.1-3.2,5.2-3.2,9.5v20c0,.6-.5,1.1-1.1,1.1h-10.8c-.6,0-1.1-.5-1.1-1.1v-42.5c0-.6.5-1.1,1.1-1.1h10.2c.6,0,1.1.5,1.1,1.1v1.9c0,1,1.1,1.5,1.9.8.8-.8,1.8-1.4,2.8-2,2.7-1.5,5.9-2.3,9.6-2.4.6,0,1.2.5,1.2,1.1Z" fill="#fefbe4"/>
        <path d="M79.6,81.7h0S17.9,46.4,17.9,46.4c-1.2-.7-2-2-2-3.5v-13.7c0-2,2.2-3.3,4-2.3l32.1,18.5c1.8,1,1.8,3.6,0,4.6l-7.5,4.3c-.9.5-.9,1.8,0,2.3l12.7,7.2c.8.5,1.8.5,2.6,0l22-12.7c2.7-1.5,2.6-5.4,0-6.9L6,.5C3.3-1,0,.9,0,4v48.2c0,1.4.8,2.8,2,3.5l69.1,39.5c2.4,1.7,5.8,2,9.2,0s1.5-1.1,2-1.9c2.8-4.7,1-9.5-2.6-11.6Z" fill="#23b9c0"/>
        <path d="M4.4,62.1l25.4,14.7c2,1.1,2,4,0,5.1l-25.4,14.7C2.5,97.6,0,96.2,0,93.9v-29.3c0-2.3,2.5-3.7,4.4-2.5Z" fill="#9943a6"/>
      </g>
    </g>
  </g>
</svg>