<?xml version="1.0" encoding="UTF-8"?>
<svg xmlns="http://www.w3.org/2000/svg" viewBox="0 0 358 116.5">
  <g id="Text_stroke" data-name="Text stroke">
    <g id="Big_R" data-name="Big R">
      <path d="M157.57,78.28l-8.23-11.88c-.44-.64-1.18-1.02-1.96-1.02h-8.35c-1.31,0-2.38,1.07-2.38,2.38v10.53h-7.73v-43.1h18.45c3.89,0,7.28.63,10.05,1.88,2.7,1.21,4.81,2.97,6.27,5.21,1.46,2.24,2.19,4.96,2.19,8.08s-.74,5.88-2.19,8.1c-1.45,2.22-3.56,3.94-6.26,5.11l-1.68.73.98,1.53,8.64,12.47h-7.81ZM139.02,40.87c-1.31,0-2.38,1.07-2.38,2.38v14.25c0,1.31,1.07,2.38,2.38,2.38h7.75c3.6,0,6.4-.83,8.34-2.46,2.02-1.7,3.04-4.08,3.04-7.07s-1.02-5.38-3.05-7.05c-1.93-1.61-4.74-2.42-8.33-2.42h-7.75Z" style="fill: #fefbe4;"/>
      <path d="M147.36,36.68c3.68,0,6.86.59,9.44,1.74,2.47,1.11,4.31,2.63,5.63,4.66,1.31,2.02,1.95,4.4,1.95,7.26s-.64,5.28-1.95,7.28c-1.3,1.99-3.13,3.48-5.57,4.54l-3.56,1.34,2.19,3.17,7.01,10.12h-4.16l-7.79-11.24c-.72-1.05-1.92-1.67-3.2-1.67h-8.34c-2.14,0-3.88,1.74-3.88,3.88v9.03h-4.73v-40.1h16.95M139.02,61.37h7.75c3.96,0,7.09-.95,9.31-2.81,2.34-1.97,3.57-4.81,3.57-8.22s-1.24-6.26-3.59-8.2c-2.21-1.84-5.34-2.77-9.29-2.77h-7.75c-2.14,0-3.88,1.74-3.88,3.88v14.25c0,2.14,1.74,3.88,3.88,3.88M147.36,33.68h-19.07c-.48,0-.88.39-.88.88v44.34c0,.48.39.88.88.88h8.98c.48,0,.88-.39.88-.88v-11.15c0-.48.39-.88.88-.88h8.35c.29,0,.56.14.72.38l8.42,12.15c.16.24.43.38.72.38h9.32c.71,0,1.13-.8.72-1.38l-9.32-13.45s.04-.02.06-.03c2.99-1.29,5.29-3.18,6.92-5.66,1.62-2.48,2.44-5.45,2.44-8.92s-.81-6.39-2.44-8.89c-1.62-2.5-3.93-4.42-6.92-5.76-2.99-1.34-6.54-2.01-10.67-2.01h0ZM139.02,58.37c-.48,0-.88-.39-.88-.88v-14.25c0-.48.39-.88.88-.88h7.75c3.25,0,5.71.69,7.38,2.08,1.67,1.38,2.5,3.35,2.5,5.89s-.83,4.52-2.5,5.93c-1.67,1.4-4.13,2.11-7.38,2.11h-7.75Z" style="fill: #fefbe4;"/>
    </g>
    <g id="e1">
      <path d="M192.67,78.8c-3.78,0-7.11-.74-9.91-2.2-2.77-1.45-4.95-3.44-6.46-5.93-1.52-2.49-2.28-5.39-2.28-8.6s.74-6.14,2.2-8.67c1.45-2.51,3.52-4.5,6.13-5.92,2.64-1.43,5.67-2.16,9-2.16s6.12.69,8.67,2.06c2.53,1.36,4.57,3.3,6.04,5.77,1.48,2.48,2.22,5.52,2.22,9.04,0,.36-.02.77-.06,1.23v.04h-24.26c-.78,0-1.51.38-1.96,1.02-.44.63-.55,1.44-.28,2.16.22.6.5,1.18.83,1.72,1.03,1.69,2.45,3,4.24,3.89,1.73.87,3.82,1.31,6.2,1.31,2.02,0,3.86-.32,5.46-.96,1.15-.46,2.24-1.09,3.25-1.87l3.52,3.81c-1.29,1.2-2.84,2.17-4.62,2.88-2.27.91-4.94,1.37-7.94,1.37ZM191.42,50.09c-2.01,0-3.82.46-5.39,1.35-1.58.91-2.82,2.19-3.7,3.81-.37.69-.67,1.44-.88,2.22-.19.72-.04,1.47.41,2.05.46.59,1.14.93,1.89.93h15.27c.74,0,1.42-.33,1.88-.92.45-.58.61-1.32.43-2.04-.21-.81-.51-1.59-.9-2.3-.87-1.59-2.1-2.86-3.65-3.77-1.55-.9-3.35-1.36-5.37-1.36Z" style="fill: #fefbe4;"/>
      <path d="M191.35,46.82c2.95,0,5.63.63,7.97,1.88,2.32,1.24,4.11,2.95,5.46,5.21,1.3,2.19,1.98,4.89,2.01,8.04h-7.54c1.12-.06,2.15-.6,2.84-1.49.74-.95.99-2.16.7-3.32-.24-.94-.59-1.83-1.04-2.65-1.01-1.84-2.42-3.3-4.21-4.34-1.78-1.04-3.84-1.56-6.12-1.56s-4.34.52-6.14,1.55c-1.82,1.05-3.26,2.53-4.27,4.4-.43.79-.77,1.65-1.01,2.55-.31,1.17-.07,2.39.67,3.35.74.97,1.86,1.52,3.08,1.52h0c-1.19.07-2.29.68-2.97,1.66-.72,1.04-.89,2.36-.45,3.54.25.69.58,1.35.95,1.98,1.17,1.94,2.81,3.44,4.85,4.45,1.95.98,4.26,1.47,6.88,1.47,2.21,0,4.24-.36,6.02-1.07.86-.34,1.69-.77,2.48-1.28l1.55,1.68c-.89.65-1.9,1.2-3,1.64-2.1.84-4.58,1.27-7.38,1.27-3.53,0-6.63-.68-9.21-2.03-2.56-1.34-4.48-3.1-5.87-5.39-1.39-2.28-2.07-4.84-2.07-7.82s.65-5.59,2-7.91c1.33-2.3,3.15-4.05,5.55-5.35,2.42-1.31,5.21-1.98,8.29-1.98M203.14,71.5h0,0M191.35,43.82c-3.6,0-6.84.78-9.71,2.34-2.87,1.56-5.11,3.72-6.72,6.49-1.6,2.77-2.4,5.91-2.4,9.42s.83,6.64,2.5,9.38c1.67,2.75,4.02,4.91,7.05,6.49,3.03,1.58,6.56,2.37,10.6,2.37,3.2,0,6.04-.49,8.5-1.48,2.18-.88,4.03-2.09,5.55-3.64.33-.33.33-.87.02-1.21l-4.32-4.69c-.17-.19-.41-.28-.64-.28-.2,0-.41.07-.57.21-1.02.86-2.11,1.53-3.29,2-1.43.57-3.06.86-4.91.86-2.15,0-3.99-.38-5.53-1.15-1.54-.77-2.75-1.88-3.62-3.32-.28-.46-.52-.95-.71-1.47-.21-.57.23-1.17.83-1.17h24.83c.45,0,.83-.34.87-.8.02-.2.04-.41.06-.62.04-.5.06-.95.06-1.35,0-3.82-.81-7.09-2.44-9.81-1.62-2.72-3.83-4.83-6.62-6.32-2.79-1.49-5.91-2.24-9.38-2.24h0ZM183.75,58.97c-.57,0-1-.54-.85-1.1.18-.68.43-1.31.75-1.9.75-1.38,1.79-2.46,3.13-3.23,1.34-.77,2.89-1.15,4.64-1.15s3.29.39,4.61,1.15c1.32.77,2.35,1.83,3.09,3.19.33.6.58,1.25.76,1.94.14.55-.29,1.09-.85,1.09h-15.27Z" style="fill: #fefbe4;"/>
    </g>
    <g id="e2">
      <path d="M234.22,78.8c-3.78,0-7.11-.74-9.91-2.2-2.77-1.45-4.95-3.44-6.46-5.93-1.51-2.49-2.28-5.38-2.28-8.6s.74-6.15,2.2-8.67c1.45-2.51,3.52-4.5,6.13-5.92,2.64-1.43,5.67-2.16,9-2.16s6.12.69,8.68,2.06c2.53,1.36,4.56,3.3,6.04,5.77,1.48,2.47,2.23,5.52,2.23,9.04,0,.36-.02.76-.06,1.22v.05h-24.26c-.78,0-1.51.38-1.96,1.02-.44.63-.55,1.44-.28,2.16.22.6.5,1.19.83,1.73,1.02,1.68,2.44,2.99,4.23,3.89,1.74.87,3.82,1.31,6.2,1.31,2.03,0,3.87-.33,5.46-.96,1.15-.46,2.24-1.09,3.24-1.87l3.52,3.81c-1.29,1.2-2.84,2.17-4.62,2.88-2.27.91-4.94,1.37-7.93,1.37ZM232.97,50.09c-2.01,0-3.82.46-5.39,1.35-1.58.91-2.82,2.19-3.7,3.81-.37.68-.67,1.43-.88,2.22-.19.71-.04,1.46.41,2.05.46.59,1.14.93,1.89.93h15.27c.74,0,1.42-.33,1.88-.92.45-.58.61-1.32.43-2.03-.2-.81-.5-1.59-.89-2.3-.88-1.6-2.11-2.87-3.66-3.77-1.55-.9-3.35-1.36-5.37-1.36Z" style="fill: #fefbe4;"/>
      <path d="M232.9,46.82c2.95,0,5.63.63,7.97,1.88,2.32,1.24,4.11,2.95,5.46,5.21,1.3,2.19,1.98,4.89,2.01,8.04h-7.55c1.12-.06,2.15-.6,2.84-1.49.74-.95.99-2.16.7-3.32-.24-.94-.58-1.83-1.04-2.66-1.01-1.83-2.43-3.29-4.21-4.34-1.78-1.04-3.84-1.56-6.12-1.56s-4.34.52-6.14,1.55c-1.82,1.05-3.26,2.53-4.27,4.4-.43.79-.77,1.65-1.01,2.55-.31,1.17-.07,2.39.67,3.35.74.97,1.86,1.52,3.08,1.52h0c-1.19.07-2.29.68-2.97,1.66-.72,1.04-.89,2.36-.46,3.54.26.7.58,1.36.95,1.98,1.17,1.94,2.8,3.44,4.84,4.46,1.95.98,4.26,1.47,6.88,1.47,2.22,0,4.24-.36,6.02-1.07.86-.34,1.69-.77,2.48-1.28l1.55,1.68c-.89.65-1.88,1.19-3,1.64-2.09.84-4.57,1.27-7.38,1.27-3.53,0-6.63-.68-9.22-2.03-2.56-1.34-4.48-3.1-5.87-5.39-1.39-2.28-2.06-4.84-2.06-7.82s.65-5.59,2-7.92c1.33-2.3,3.14-4.05,5.55-5.35,2.42-1.31,5.21-1.98,8.28-1.98M244.69,71.5h0,0M232.9,43.82c-3.6,0-6.84.78-9.71,2.34-2.88,1.56-5.12,3.72-6.72,6.49-1.6,2.77-2.4,5.91-2.4,9.42s.83,6.64,2.5,9.38c1.67,2.75,4.02,4.91,7.05,6.49,3.03,1.58,6.56,2.37,10.6,2.37,3.2,0,6.04-.49,8.49-1.48,2.18-.88,4.03-2.09,5.55-3.64.33-.33.33-.87.02-1.21l-4.32-4.69c-.17-.19-.41-.28-.64-.28-.2,0-.41.07-.57.21-1.01.86-2.11,1.53-3.29,2-1.43.57-3.06.86-4.91.86-2.15,0-3.99-.38-5.53-1.15-1.54-.77-2.75-1.88-3.62-3.32-.28-.46-.52-.95-.71-1.47-.21-.57.23-1.17.83-1.17h24.83c.45,0,.83-.34.87-.79.02-.2.04-.41.06-.62.04-.5.07-.95.07-1.35,0-3.82-.81-7.09-2.44-9.81-1.62-2.72-3.83-4.83-6.62-6.32-2.79-1.49-5.92-2.24-9.38-2.24h0ZM225.3,58.97c-.57,0-1-.54-.85-1.1.18-.68.43-1.31.75-1.9.75-1.38,1.79-2.46,3.13-3.23,1.34-.77,2.89-1.15,4.64-1.15s3.29.39,4.61,1.15c1.32.77,2.35,1.83,3.1,3.19.33.6.58,1.25.75,1.94.14.55-.29,1.09-.85,1.09h-15.27Z" style="fill: #fefbe4;"/>
    </g>
    <g id="l">
      <rect x="259.4" y="32.41" width="7.27" height="45.86" style="fill: #fefbe4;"/>
      <path d="M265.17,33.91v42.86h-4.27v-42.86h4.27M267.29,30.91h-8.52c-.48,0-.88.39-.88.88v47.11c0,.48.39.88.88.88h8.52c.48,0,.88-.39.88-.88V31.79c0-.48-.39-.88-.88-.88h0Z" style="fill: #fefbe4;"/>
    </g>
    <g id="i">
      <rect x="278.93" y="45.85" width="7.27" height="32.43" style="fill: #fefbe4;"/>
      <path d="M284.7,47.35v29.43h-4.27v-29.43h4.27M286.82,44.35h-8.52c-.48,0-.88.39-.88.88v33.67c0,.48.39.88.88.88h8.52c.48,0,.88-.39.88-.88v-33.67c0-.48-.39-.88-.88-.88h0Z" style="fill: #fefbe4;"/>
    </g>
    <g id="z">
      <path d="M296.38,78.28v-4.21l16.41-19.41c.6-.71.74-1.69.34-2.54s-1.22-1.38-2.16-1.38h-14.19v-4.9h27.56v4.21l-16.45,19.4c-.61.71-.74,1.69-.34,2.54s1.22,1.38,2.16,1.38h15.23v4.9h-28.54Z" style="fill: #fefbe4;"/>
      <path d="M322.83,47.35v2.16l-16.09,18.98c-.97,1.15-1.19,2.77-.56,4.14.63,1.37,2.01,2.25,3.52,2.25h13.72v1.9h-25.54v-2.16l16.05-18.99c.97-1.15,1.19-2.77.56-4.14s-2.01-2.25-3.52-2.25h-12.69v-1.9h24.56M324.95,44.35h-28.8c-.48,0-.88.39-.88.88v6.15c0,.48.39.88.88.88h14.82c.75,0,1.15.87.67,1.44l-16.55,19.58c-.13.16-.21.36-.21.57v5.06c0,.48.39.88.88.88h29.79c.48,0,.88-.39.88-.88v-6.15c0-.48-.39-.88-.88-.88h-15.85c-.75,0-1.15-.88-.67-1.45l16.59-19.58c.13-.16.21-.36.21-.57v-5.06c0-.48-.39-.88-.88-.88h0Z" style="fill: #fefbe4;"/>
    </g>
    <g id="small_r" data-name="small r">
      <path d="M334.51,78.28v-32.43h6.81v.86c0,1.31,1.07,2.38,2.38,2.38h0c.59,0,1.16-.22,1.6-.63.57-.52,1.22-.99,1.93-1.39,1.74-.97,3.85-1.54,6.27-1.7v6.26c-.25-.02-.5-.03-.74-.03-3.28,0-5.96.96-7.95,2.85-2.01,1.91-3.03,4.8-3.03,8.6v15.23h-7.27Z" style="fill: #fefbe4;"/>
      <path d="M352,47.05v3.08c-3.34.14-6.1,1.23-8.22,3.24-2.32,2.2-3.5,5.46-3.5,9.68v13.73h-4.27v-29.43h3.86c.31,1.84,1.91,3.24,3.83,3.24.97,0,1.9-.36,2.62-1.02.48-.44,1.04-.84,1.65-1.18,1.16-.64,2.51-1.09,4.04-1.34M354.12,43.84s-.02,0-.03,0c-2.94.11-5.47.75-7.58,1.93-.82.46-1.56.99-2.22,1.59-.18.16-.38.23-.59.23-.45,0-.88-.35-.88-.88v-1.48c0-.48-.39-.88-.88-.88h-8.05c-.48,0-.88.39-.88.88v33.67c0,.48.39.88.88.88h8.52c.48,0,.88-.39.88-.88v-15.85c0-3.38.85-5.88,2.57-7.51,1.71-1.62,4.02-2.43,6.92-2.43.35,0,.71.02,1.09.06.05,0,.1.01.15.02.04,0,.08,0,.12,0,.48,0,.88-.38.88-.88v-7.61c0-.49-.4-.88-.88-.88h0Z" style="fill: #fefbe4;"/>
    </g>
  </g>
  <g id="Dot_stroke" data-name="Dot stroke">
    <g id="Triangle_dot" data-name="Triangle dot">
      <path d="M280.31,34.39l2.12,1.22-2.12,1.22v-2.44M278.91,30.36c-.83,0-1.6.67-1.6,1.6v7.31c0,.93.76,1.6,1.6,1.6.27,0,.54-.07.79-.22l6.34-3.66c1.06-.61,1.06-2.15,0-2.76l-6.34-3.66c-.26-.15-.53-.22-.79-.22h0Z" style="fill: #9943a6;"/>
    </g>
  </g>
  <g id="Dot_fill" data-name="Dot fill">
    <path id="Triangle_dot-2" data-name="Triangle dot" d="M279.7,30.57l6.34,3.66c1.06.61,1.06,2.15,0,2.76l-6.34,3.66c-1.06.61-2.39-.15-2.39-1.38v-7.31c0-1.23,1.33-1.99,2.39-1.38Z" style="fill: #9943a6;"/>
  </g>
  <g id="Text_fill" data-name="Text fill">
    <path id="Big_R-2" data-name="Big R" d="M157.97,64.95s.04-.02.06-.03c2.99-1.29,5.29-3.18,6.92-5.66,1.62-2.48,2.44-5.45,2.44-8.92s-.81-6.39-2.44-8.89c-1.62-2.5-3.93-4.42-6.92-5.76-2.99-1.34-6.54-2.01-10.67-2.01h-19.07c-.48,0-.88.39-.88.88v44.34c0,.48.39.88.88.88h8.98c.48,0,.88-.39.88-.88v-11.15c0-.48.39-.88.88-.88h8.34s0,0,.01,0c.29,0,.56.14.72.38l8.42,12.15c.16.24.43.38.72.38h9.32c.71,0,1.13-.8.72-1.38l-9.32-13.45ZM154.15,56.27c-1.67,1.4-4.13,2.11-7.38,2.11h-7.75c-.48,0-.88-.39-.88-.88v-14.25c0-.48.39-.88.88-.88h7.75c3.25,0,5.71.69,7.38,2.08,1.67,1.38,2.5,3.35,2.5,5.89s-.83,4.52-2.5,5.93Z" style="fill: #fefbe4;"/>
    <path id="e1-2" data-name="e1" d="M207.35,52.38c-1.62-2.72-3.83-4.83-6.62-6.32-2.79-1.49-5.91-2.24-9.38-2.24s-6.84.78-9.71,2.34c-2.87,1.56-5.11,3.72-6.72,6.49-1.6,2.77-2.4,5.91-2.4,9.42s.83,6.64,2.5,9.38c1.67,2.75,4.02,4.91,7.05,6.49,3.03,1.58,6.56,2.37,10.6,2.37,3.2,0,6.03-.49,8.5-1.48,2.18-.88,4.03-2.09,5.55-3.64.33-.33.33-.87.02-1.21l-4.32-4.69c-.32-.35-.85-.38-1.21-.07-1.02.86-2.11,1.53-3.29,2-1.43.57-3.06.86-4.91.86-2.15,0-3.99-.38-5.53-1.15-1.54-.77-2.75-1.88-3.62-3.32-.28-.46-.52-.95-.71-1.47-.21-.57.23-1.17.83-1.17h24.83c.45,0,.83-.34.87-.8.02-.2.04-.41.06-.62.04-.5.06-.95.06-1.35,0-3.82-.81-7.09-2.44-9.81ZM183.75,58.97c-.57,0-1-.54-.85-1.1.18-.68.43-1.31.75-1.9.75-1.38,1.79-2.46,3.13-3.23,1.34-.77,2.89-1.15,4.64-1.15s3.29.39,4.61,1.15c1.32.77,2.35,1.83,3.09,3.19.33.6.58,1.25.76,1.94.14.55-.29,1.09-.85,1.09h-15.27Z" style="fill: #fefbe4;"/>
    <path id="e2-2" data-name="e2" d="M248.91,52.38c-1.62-2.72-3.83-4.83-6.62-6.32-2.79-1.49-5.92-2.24-9.38-2.24s-6.84.78-9.71,2.34c-2.88,1.56-5.12,3.72-6.72,6.49-1.6,2.77-2.4,5.91-2.4,9.42s.83,6.64,2.5,9.38c1.67,2.75,4.02,4.91,7.05,6.49,3.03,1.58,6.56,2.37,10.6,2.37,3.2,0,6.03-.49,8.49-1.48,2.18-.88,4.03-2.09,5.55-3.64.33-.33.33-.87.02-1.21l-4.32-4.69c-.32-.35-.85-.38-1.21-.07-1.01.86-2.11,1.53-3.29,2-1.43.57-3.06.86-4.91.86-2.15,0-3.99-.38-5.53-1.15-1.54-.77-2.75-1.88-3.62-3.32-.28-.46-.52-.95-.71-1.47-.21-.57.23-1.17.83-1.17h24.83c.45,0,.83-.34.87-.79.02-.2.04-.41.06-.62.04-.5.07-.95.07-1.35,0-3.82-.81-7.09-2.44-9.81ZM225.3,58.97c-.57,0-1-.54-.85-1.1.18-.68.43-1.31.75-1.9.75-1.38,1.79-2.46,3.13-3.23,1.34-.77,2.89-1.15,4.64-1.15s3.29.39,4.61,1.15c1.32.77,2.35,1.83,3.1,3.19.33.6.58,1.25.75,1.94.14.55-.29,1.09-.86,1.09h-15.27Z" style="fill: #fefbe4;"/>
    <path id="l-2" data-name="l" d="M257.9,78.9V31.79c0-.48.39-.88.88-.88h8.52c.48,0,.88.39.88.88v47.11c0,.48-.39.88-.88.88h-8.52c-.48,0-.88-.39-.88-.88Z" style="fill: #fefbe4;"/>
    <path id="i-2" data-name="i" d="M277.43,45.22v33.67c0,.48.39.88.88.88h8.52c.48,0,.88-.39.88-.88v-33.67c0-.48-.39-.88-.88-.88h-8.52c-.48,0-.88.39-.88.88Z" style="fill: #fefbe4;"/>
    <path id="z-2" data-name="z" d="M326.42,72.75v6.15c0,.48-.39.88-.88.88h-29.79c-.48,0-.88-.39-.88-.88v-5.06c0-.21.07-.41.21-.57l16.55-19.58c.48-.57.08-1.44-.67-1.44h-14.82c-.48,0-.88-.39-.88-.88v-6.15c0-.48.39-.88.88-.88h28.8c.48,0,.88.39.88.88v5.06c0,.21-.07.41-.21.57l-16.59,19.58c-.48.57-.08,1.45.67,1.45h15.85c.48,0,.88.39.88.88Z" style="fill: #fefbe4;"/>
    <path id="small_r-2" data-name="small r" d="M355,44.72v7.61c0,.53-.47.94-1,.87-.05,0-.1-.01-.15-.02-.37-.04-.73-.06-1.09-.06-2.9,0-5.2.81-6.92,2.44-1.71,1.62-2.57,4.13-2.57,7.51v15.85c0,.48-.39.88-.88.88h-8.52c-.48,0-.88-.39-.88-.88v-33.67c0-.48.39-.88.88-.88h8.05c.48,0,.88.39.88.88v1.48c0,.76.91,1.16,1.47.64.66-.6,1.4-1.14,2.22-1.59,2.11-1.17,4.64-1.82,7.58-1.93.5-.02.91.38.91.88Z" style="fill: #fefbe4;"/>
  </g>
  <g id="Logo-triangle-fill">
    <g>
      <path d="M9.54,13.71l75.6,43.61-18.65,10.81-4.13-2.35.36-.21c2.92-1.69,4.74-4.83,4.74-8.2s-1.82-6.52-4.74-8.2L27.85,29.02c-1.44-.83-3.08-1.27-4.73-1.27-5.23,0-9.48,4.25-9.48,9.48v14.84c0,3.92,2.12,7.55,5.5,9.48l65.68,37.62,1.26.73c.48.28.83.73.97,1.26.16.62.03,1.33-.4,2.1-.57.31-1.1.47-1.58.47-.42,0-.81-.12-1.16-.36l-.23-.16-.24-.14L9.54,60.8V13.71M7.28,5.45c-2.26,0-4.33,1.81-4.33,4.33v52.34c0,1.55.83,2.99,2.19,3.76l75.02,42.92c1.39.96,3.08,1.53,4.91,1.53,1.62,0,3.34-.44,5.05-1.45.87-.51,1.61-1.23,2.12-2.1,3.03-5.11,1.05-10.32-2.85-12.58h0S22.42,55.82,22.42,55.82c-1.35-.77-2.19-2.2-2.19-3.76v-14.84c0-1.68,1.38-2.89,2.89-2.89.48,0,.97.12,1.44.39l34.86,20.13c1.92,1.11,1.92,3.88,0,4.99l-8.14,4.71c-.96.56-.96,1.95,0,2.5l13.79,7.85c.44.25.93.38,1.43.38s1-.13,1.44-.39l23.89-13.85c2.88-1.67,2.87-5.82,0-7.48L9.43,6.03c-.7-.4-1.43-.58-2.15-.58h0Z" style="fill: #23b9c0;"/>
      <path d="M9.9,81.76s.07,0,.17.06l16.33,9.43c.08.05.18.1.18.31s-.09.26-.18.31l-16.33,9.43c-.1.06-.15.06-.17.06,0,0-.36-.02-.36-.36v-18.85c0-.34.36-.36.36-.36M9.9,75.17c-3.63,0-6.96,2.9-6.96,6.96v18.85c0,4.06,3.33,6.96,6.96,6.96,1.16,0,2.34-.29,3.46-.94l16.33-9.43c4.63-2.67,4.63-9.36,0-12.03l-16.33-9.43c-1.12-.65-2.31-.94-3.46-.94h0Z" style="fill: #9943a6;"/>
      <path d="M89.38,94.19h0S22.42,55.82,22.42,55.82c-1.35-.77-2.19-2.2-2.19-3.76v-14.84c0-2.22,2.4-3.6,4.32-2.5l34.86,20.13c1.92,1.11,1.92,3.88,0,4.99l-8.14,4.71c-.96.56-.96,1.95,0,2.5l13.79,7.85c.89.51,1.98.5,2.87-.01l23.89-13.85c2.88-1.67,2.87-5.82,0-7.48L9.43,6.03c-2.88-1.66-6.48.42-6.48,3.74v52.34c0,1.55.83,2.99,2.19,3.76l75.02,42.92c2.63,1.82,6.31,2.22,9.95.08.87-.51,1.61-1.23,2.12-2.1,3.03-5.11,1.05-10.32-2.85-12.58Z" style="fill: #23b9c0;"/>
      <path d="M5.95,71.83l31.17,17.99c1.33.77,1.33,2.69,0,3.46l-31.17,17.99c-1.33.77-3-.19-3-1.73v-35.99c0-1.54,1.67-2.5,3-1.73Z" style="fill: #9943a6;"/>
    </g>
  </g>
</svg>