<?xml version="1.0" encoding="UTF-8"?>
<svg xmlns="http://www.w3.org/2000/svg" version="1.1" viewBox="0 0 512 512">
  <defs>
    <style>
      .cls-1 {
        fill: #23b9c0;
      }

      .cls-2 {
        fill: #0c0c0c;
      }

      .cls-3 {
        fill: #9943a6;
      }

      .cls-4 {
        fill: #9943a6;
      }
    </style>
  </defs>
  <!-- Generator: Adobe Illustrator 28.7.1, SVG Export Plug-In . SVG Version: 1.2.0 Build 142)  -->
  <g>
    <g id="Layer_2">
      <g>
        <rect class="cls-3" x="272.7" y="319" width="79.7" height="35.9"/>
        <rect class="cls-1" x="201.3" y="180.7" width="221.2" height="138.9" rx="12" ry="12"/>
        <rect class="cls-2" x="249.7" y="147.1" width="124.4" height="205.9" rx="7" ry="7" transform="translate(562.1 -61.8) rotate(90)"/>
        <rect class="cls-1" x="268.2" y="354.3" width="90" height="6.4" rx="2.5" ry="2.5"/>
      </g>
      <g>
        <rect class="cls-3" x="54.7" y="256.5" width="190.3" height="123.5" rx="12" ry="12"/>
        <rect class="cls-2" x="94.6" y="229.5" width="110.6" height="177.5" rx="7" ry="7" transform="translate(468.2 168.4) rotate(90)"/>
        <path class="cls-3" d="M242.5,466.2H57.3c-8.5,0-15.4-6.9-15.4-15.4l12.9-55.3c0-8.5,6.9-15.4,15.4-15.4h159.5c8.5,0,15.4,6.9,15.4,15.4l12.9,55.3c0,8.5-6.9,15.4-15.4,15.4Z"/>
        <path class="cls-2" d="M57.3,459.7c-4.7,0-8.6-3.7-9-8.4l12.8-55.2v-.7c0-5,4-9,9-9h159.5c5,0,9,4,9,9v.7l12.8,55.2c-.3,4.7-4.2,8.4-9,8.4H57.3Z"/>
        <g>
          <rect class="cls-1" x="67.6" y="391.6" width="14.1" height="7" rx="3" ry="3"/>
          <rect class="cls-1" x="101" y="391.6" width="14.1" height="7" rx="3" ry="3"/>
          <rect class="cls-1" x="84.3" y="391.6" width="14.1" height="7" rx="3" ry="3"/>
          <rect class="cls-1" x="117.8" y="391.6" width="14.1" height="7" rx="3" ry="3"/>
          <rect class="cls-1" x="151.2" y="391.6" width="14.1" height="7" rx="3" ry="3"/>
          <rect class="cls-1" x="134.5" y="391.6" width="14.1" height="7" rx="3" ry="3"/>
          <rect class="cls-1" x="167.9" y="391.6" width="14.1" height="7" rx="3" ry="3"/>
          <rect class="cls-1" x="201.3" y="391.6" width="14.1" height="7" rx="3" ry="3"/>
          <rect class="cls-1" x="218.1" y="391.6" width="14.1" height="7" rx="3" ry="3"/>
          <rect class="cls-1" x="184.6" y="391.6" width="14.1" height="7" rx="3" ry="3"/>
        </g>
        <g>
          <rect class="cls-1" x="65" y="402.2" width="14.1" height="7.7" rx="3" ry="3"/>
          <rect class="cls-1" x="101" y="402.2" width="14.1" height="7.7" rx="3" ry="3"/>
          <rect class="cls-1" x="83" y="402.2" width="14.1" height="7.7" rx="3" ry="3"/>
          <rect class="cls-1" x="117.8" y="402.2" width="14.1" height="7.7" rx="3" ry="3"/>
          <rect class="cls-1" x="151.2" y="402.2" width="14.1" height="7.7" rx="3" ry="3"/>
          <rect class="cls-1" x="134.5" y="402.2" width="14.1" height="7.7" rx="3" ry="3"/>
          <rect class="cls-1" x="167.9" y="402.2" width="14.1" height="7.7" rx="3" ry="3"/>
          <rect class="cls-1" x="202.6" y="402.2" width="14.1" height="7.7" rx="3" ry="3"/>
          <rect class="cls-1" x="220.6" y="402.2" width="14.1" height="7.7" rx="3" ry="3"/>
          <rect class="cls-1" x="184.6" y="402.2" width="14.1" height="7.7" rx="3" ry="3"/>
        </g>
        <g>
          <rect class="cls-1" x="63.7" y="414.1" width="14.1" height="7.7" rx="3" ry="3"/>
          <rect class="cls-1" x="99.7" y="414.1" width="14.1" height="7.7" rx="3" ry="3"/>
          <rect class="cls-1" x="81.7" y="414.1" width="14.1" height="7.7" rx="3" ry="3"/>
          <rect class="cls-1" x="117.8" y="414.1" width="14.1" height="7.7" rx="3" ry="3"/>
          <rect class="cls-1" x="151.2" y="414.1" width="14.1" height="7.7" rx="3" ry="3"/>
          <rect class="cls-1" x="134.5" y="414.1" width="14.1" height="7.7" rx="3" ry="3"/>
          <rect class="cls-1" x="167.9" y="414.1" width="14.1" height="7.7" rx="3" ry="3"/>
          <rect class="cls-1" x="203.9" y="414.1" width="14.1" height="7.7" rx="3" ry="3"/>
          <rect class="cls-1" x="221.9" y="414.1" width="14.1" height="7.7" rx="3" ry="3"/>
          <rect class="cls-1" x="185.9" y="414.1" width="14.1" height="7.7" rx="3" ry="3"/>
        </g>
        <g>
          <rect class="cls-1" x="61.2" y="426.9" width="14.1" height="7.7" rx="3" ry="3"/>
          <rect class="cls-1" x="97.2" y="426.9" width="14.1" height="7.7" rx="3" ry="3"/>
          <rect class="cls-1" x="79.2" y="426.9" width="14.1" height="7.7" rx="3" ry="3"/>
          <rect class="cls-1" x="115.2" y="426.9" width="14.1" height="7.7" rx="3" ry="3"/>
          <rect class="cls-1" x="152.5" y="426.9" width="14.1" height="7.7" rx="3" ry="3"/>
          <rect class="cls-1" x="133.2" y="426.9" width="14.1" height="7.7" rx="3" ry="3"/>
          <rect class="cls-1" x="170.5" y="426.9" width="14.1" height="7.7" rx="3" ry="3"/>
          <rect class="cls-1" x="206.5" y="426.9" width="14.1" height="7.7" rx="3" ry="3"/>
          <rect class="cls-1" x="224.5" y="426.9" width="14.1" height="7.7" rx="3" ry="3"/>
          <rect class="cls-1" x="188.5" y="426.9" width="14.1" height="7.7" rx="3" ry="3"/>
        </g>
        <rect class="cls-3" x="130.6" y="440.4" width="38.6" height="15.4" rx="3.5" ry="3.5"/>
      </g>
      <g>
        <rect class="cls-1" x="285.5" y="332.4" width="101.6" height="133.7" rx="12" ry="12"/>
        <rect class="cls-2" x="275.9" y="354.9" width="120.9" height="88.7" rx="7" ry="7" transform="translate(735.6 63) rotate(90)"/>
      </g>
      <g>
        <rect class="cls-4" x="414.4" y="368.4" width="52.7" height="95.2" rx="6.6" ry="6.6"/>
        <rect class="cls-2" x="399.6" y="396.1" width="82.3" height="39.9" rx="1.6" ry="1.6" transform="translate(856.8 -24.7) rotate(90)"/>
      </g>
      <g>
        <path class="cls-1" d="M178.1,336.6h0s-38.5-22.1-38.5-22.1c-.8-.4-1.3-1.3-1.3-2.2v-8.5c0-1.3,1.4-2.1,2.5-1.4l20,11.6c1.1.6,1.1,2.2,0,2.9l-4.7,2.7c-.6.3-.6,1.1,0,1.4l7.9,4.5c.5.3,1.1.3,1.7,0l13.7-8c1.7-1,1.7-3.3,0-4.3l-47.4-27.3c-1.7-1-3.7.2-3.7,2.2v30.1c0,.9.5,1.7,1.3,2.2l43.1,24.7c1.5,1,3.6,1.3,5.7,0s.9-.7,1.2-1.2c1.7-2.9.6-5.9-1.6-7.2Z"/>
        <path class="cls-3" d="M130.8,324.2l16.5,9.5c1.1.6,1.1,2.2,0,2.8l-16.5,9.5c-1.1.6-2.4-.2-2.4-1.4v-19c0-1.3,1.4-2,2.4-1.4Z"/>
      </g>
      <g>
        <path class="cls-1" d="M362.6,416.4h0s-38.5-22.1-38.5-22.1c-.8-.4-1.3-1.3-1.3-2.2v-8.5c0-1.3,1.4-2.1,2.5-1.4l20,11.6c1.1.6,1.1,2.2,0,2.9l-4.7,2.7c-.6.3-.6,1.1,0,1.4l7.9,4.5c.5.3,1.1.3,1.7,0l13.7-8c1.7-1,1.7-3.3,0-4.3l-47.4-27.3c-1.7-1-3.7.2-3.7,2.2v30.1c0,.9.5,1.7,1.3,2.2l43.1,24.7c1.5,1,3.6,1.3,5.7,0s.9-.7,1.2-1.2c1.7-2.9.6-5.9-1.6-7.2Z"/>
        <path class="cls-3" d="M315.3,403.9l16.5,9.5c1.1.6,1.1,2.2,0,2.8l-16.5,9.5c-1.1.6-2.4-.2-2.4-1.4v-19c0-1.3,1.4-2,2.4-1.4Z"/>
      </g>
      <g>
        <path class="cls-1" d="M455.4,421.8h0s-21.5-12.3-21.5-12.3c-.4-.2-.7-.7-.7-1.2v-4.8c0-.7.8-1.2,1.4-.8l11.2,6.5c.6.4.6,1.2,0,1.6l-2.6,1.5c-.3.2-.3.6,0,.8l4.4,2.5c.3.2.6.2.9,0l7.7-4.4c.9-.5.9-1.9,0-2.4l-26.4-15.3c-.9-.5-2.1.1-2.1,1.2v16.8c0,.5.3,1,.7,1.2l24.1,13.8c.8.6,2,.7,3.2,0s.5-.4.7-.7c1-1.6.3-3.3-.9-4Z"/>
        <path class="cls-3" d="M428.9,414.8l9.4,5.4c.6.3.6,1.1,0,1.5l-9.4,5.4c-.6.3-1.3,0-1.3-.7v-10.9c0-.6.7-1.1,1.3-.7Z"/>
      </g>
      <g>
        <path class="cls-1" d="M336.3,268.5h0s-38.5-22.1-38.5-22.1c-.8-.4-1.3-1.3-1.3-2.2v-8.5c0-1.3,1.4-2.1,2.5-1.4l20,11.6c1.1.6,1.1,2.2,0,2.9l-4.7,2.7c-.6.3-.6,1.1,0,1.4l7.9,4.5c.5.3,1.1.3,1.7,0l13.7-8c1.7-1,1.7-3.3,0-4.3l-47.4-27.3c-1.7-1-3.7.2-3.7,2.2v30.1c0,.9.5,1.7,1.3,2.2l43.1,24.7c1.5,1,3.6,1.3,5.7,0s.9-.7,1.2-1.2c1.7-2.9.6-5.9-1.6-7.2Z"/>
        <path class="cls-3" d="M289,256l16.5,9.5c1.1.6,1.1,2.2,0,2.8l-16.5,9.5c-1.1.6-2.4-.2-2.4-1.4v-19c0-1.3,1.4-2,2.4-1.4Z"/>
      </g>
      <rect class="cls-3" x="174.5" y="34" width="163" height="95" rx="12" ry="12"/>
      <circle class="cls-1" cx="193.5" cy="52" r="10"/>
      <path class="cls-1" d="M256.5,42c-21.5,0-39,17.5-39,39s17.5,39,39,39,39-17.5,39-39-17.5-39-39-39ZM256.5,115c-18.7,0-34-15.3-34-34s15.3-34,34-34,34,15.3,34,34-15.3,34-34,34Z"/>
      <path class="cls-2" d="M256.5,115c-18.7,0-34-15.3-34-34s15.3-34,34-34,34,15.3,34,34-15.3,34-34,34Z"/>
      <path class="cls-1" d="M157.2,150.2l-5.8.3c-1.4,0-34.1,2.4-53.5,37.9l-14.4-13.1,17.4,62.6,30-19.8-8.3-7.5v-.5c-.2-.1-3.5-15,30.9-55.6l3.8-4.5ZM114.5,210.2l8.2,7.4-18.9,12.4-10.9-39.4,5.9,5.3s23.2-39,46.5-39.3c-21.1,25.9-30.8,53.5-30.8,53.5Z"/>
      <path class="cls-3" d="M369.2,78.6c34.5,40.6,31.1,55.5,31,55.6v.5c-.1,0-8.4,7.5-8.4,7.5l30,19.8,17.4-62.6-14.4,13.1c-19.4-35.5-52.1-37.8-53.5-37.9l-5.8-.3,3.8,4.5ZM377.4,80.7c23.3.3,46.5,39.3,46.5,39.3l5.9-5.3-10.9,39.4-18.9-12.4,8.2-7.4s-9.7-27.6-30.8-53.5Z"/>
    </g>
  </g>
</svg>